<?xml version="1.0" encoding="UTF-8"?>
<svg xmlns="http://www.w3.org/2000/svg" xmlns:xlink="http://www.w3.org/1999/xlink" width="20px" height="20px" viewBox="0 0 20 20" version="1.1">
<g id="surface1">
<path style=" stroke:none;fill-rule:nonzero;fill:rgb(6.666667%,5.882353%,5.098039%);fill-opacity:1;" d="M 17.238281 17.378906 C 17.222656 17.390625 17.207031 17.398438 17.191406 17.398438 C 17.167969 17.398438 17.144531 17.386719 17.128906 17.371094 L 8.496094 6.90625 C 8.46875 6.871094 8.476562 6.824219 8.507812 6.796875 C 8.539062 6.769531 8.589844 6.773438 8.617188 6.808594 L 17.25 17.273438 C 17.277344 17.304688 17.269531 17.351562 17.238281 17.378906 M 13.117188 14.671875 C 11.632812 14.703125 9.792969 14.929688 8.621094 15.125 C 8.75 15.078125 8.882812 15.03125 9.019531 14.980469 C 9.324219 14.871094 9.625 14.765625 9.855469 14.691406 C 9.917969 14.671875 9.972656 14.652344 10.023438 14.640625 C 10.066406 14.628906 10.101562 14.617188 10.132812 14.609375 C 10.167969 14.601562 10.195312 14.59375 10.214844 14.59375 C 10.230469 14.589844 10.242188 14.59375 10.242188 14.59375 C 10.238281 14.589844 10.226562 14.589844 10.214844 14.585938 C 10.195312 14.585938 10.167969 14.582031 10.132812 14.582031 C 10.058594 14.582031 9.957031 14.589844 9.835938 14.597656 C 9.59375 14.613281 9.273438 14.648438 8.949219 14.679688 C 8.792969 14.699219 8.640625 14.714844 8.492188 14.734375 C 8.621094 14.683594 8.757812 14.636719 8.894531 14.585938 C 9.191406 14.476562 9.484375 14.371094 9.710938 14.300781 C 9.769531 14.28125 9.824219 14.265625 9.875 14.25 C 9.914062 14.238281 9.953125 14.226562 9.980469 14.21875 C 10.015625 14.210938 10.042969 14.207031 10.058594 14.203125 C 10.078125 14.203125 10.085938 14.203125 10.085938 14.203125 C 10.085938 14.203125 10.078125 14.199219 10.058594 14.199219 C 10.039062 14.195312 10.011719 14.195312 9.980469 14.195312 C 9.910156 14.195312 9.808594 14.199219 9.691406 14.207031 C 9.453125 14.222656 9.140625 14.253906 8.824219 14.285156 C 8.671875 14.300781 8.519531 14.316406 8.375 14.335938 C 8.503906 14.289062 8.636719 14.238281 8.769531 14.1875 C 9.054688 14.082031 9.34375 13.980469 9.5625 13.910156 C 9.625 13.890625 9.679688 13.875 9.726562 13.859375 C 9.765625 13.847656 9.800781 13.835938 9.828125 13.832031 C 9.863281 13.824219 9.886719 13.816406 9.90625 13.816406 C 9.921875 13.8125 9.933594 13.816406 9.933594 13.816406 C 9.933594 13.816406 9.921875 13.8125 9.90625 13.808594 C 9.886719 13.804688 9.859375 13.804688 9.824219 13.804688 C 9.757812 13.804688 9.660156 13.808594 9.546875 13.816406 C 9.3125 13.832031 9.007812 13.859375 8.699219 13.890625 C 8.550781 13.90625 8.402344 13.921875 8.261719 13.9375 C 8.382812 13.890625 8.511719 13.839844 8.644531 13.792969 C 8.921875 13.6875 9.203125 13.589844 9.417969 13.519531 C 9.476562 13.5 9.53125 13.484375 9.578125 13.46875 C 9.613281 13.457031 9.648438 13.449219 9.675781 13.441406 C 9.707031 13.433594 9.734375 13.429688 9.75 13.425781 C 9.765625 13.425781 9.777344 13.425781 9.777344 13.425781 C 9.777344 13.425781 9.769531 13.421875 9.75 13.417969 C 9.734375 13.417969 9.707031 13.414062 9.671875 13.414062 C 9.605469 13.414062 9.511719 13.417969 9.398438 13.425781 C 9.175781 13.4375 8.875 13.464844 8.574219 13.492188 C 8.535156 13.496094 8.492188 13.5 8.453125 13.507812 L 8.527344 13.394531 C 8.796875 13.292969 9.066406 13.195312 9.273438 13.128906 C 9.328125 13.109375 9.382812 13.09375 9.429688 13.078125 C 9.464844 13.066406 9.496094 13.058594 9.523438 13.050781 C 9.554688 13.042969 9.578125 13.039062 9.59375 13.039062 C 9.613281 13.035156 9.621094 13.039062 9.621094 13.039062 C 9.621094 13.039062 9.613281 13.035156 9.597656 13.03125 C 9.578125 13.027344 9.554688 13.027344 9.519531 13.027344 C 9.457031 13.023438 9.363281 13.027344 9.253906 13.035156 C 9.109375 13.042969 8.929688 13.054688 8.742188 13.070312 L 8.863281 12.886719 C 10.078125 12.671875 11.550781 12.542969 12.386719 12.480469 L 12.90625 13.113281 C 12.992188 13.601562 13.085938 14.203125 13.117188 14.671875 M 11.835938 11.867188 C 11.800781 11.878906 11.769531 11.886719 11.734375 11.894531 C 11.703125 11.90625 11.671875 11.914062 11.644531 11.917969 C 11.628906 11.921875 11.613281 11.925781 11.597656 11.925781 C 10.929688 11.988281 10.113281 12.070312 9.328125 12.1875 L 10.585938 10.300781 L 11.871094 11.851562 C 11.859375 11.855469 11.847656 11.863281 11.835938 11.867188 M 4.808594 18.578125 C 4.792969 18.597656 4.769531 18.613281 4.746094 18.613281 C 4.730469 18.613281 4.714844 18.605469 4.703125 18.597656 C 4.667969 18.574219 4.65625 18.527344 4.679688 18.492188 L 10.339844 10 L 10.441406 10.121094 Z M 6.820312 9.183594 C 6.820312 9.1875 6.816406 9.1875 6.816406 9.191406 L 6.769531 9.175781 C 6.785156 9.179688 6.804688 9.179688 6.820312 9.183594 M 6.992188 9.480469 C 7.089844 9.34375 7.199219 9.1875 7.320312 9.027344 C 7.445312 8.867188 7.582031 8.699219 7.734375 8.539062 C 7.890625 8.375 8.0625 8.226562 8.253906 8.097656 C 8.367188 8.023438 8.488281 7.960938 8.613281 7.90625 L 9.976562 9.558594 L 8.140625 12.308594 C 7.96875 12.246094 7.769531 12.152344 7.59375 12.015625 C 7.472656 11.929688 7.359375 11.824219 7.273438 11.710938 C 7.183594 11.601562 7.121094 11.480469 7.085938 11.371094 C 7.066406 11.316406 7.054688 11.261719 7.050781 11.214844 C 7.046875 11.167969 7.046875 11.125 7.050781 11.09375 C 7.054688 11.058594 7.058594 11.03125 7.0625 11.011719 C 7.066406 10.992188 7.066406 10.984375 7.066406 10.984375 C 7.066406 10.984375 7.0625 10.992188 7.054688 11.007812 C 7.046875 11.027344 7.035156 11.050781 7.023438 11.085938 C 7.011719 11.121094 7 11.164062 6.996094 11.214844 C 6.988281 11.265625 6.988281 11.324219 6.988281 11.386719 C 7 11.515625 7.039062 11.664062 7.105469 11.8125 C 7.171875 11.957031 7.265625 12.105469 7.378906 12.238281 C 7.449219 12.324219 7.527344 12.40625 7.609375 12.480469 C 7.59375 12.472656 7.578125 12.464844 7.5625 12.457031 C 7.523438 12.4375 7.488281 12.417969 7.449219 12.394531 C 7.414062 12.375 7.375 12.351562 7.335938 12.328125 C 7.265625 12.277344 7.195312 12.222656 7.128906 12.164062 C 7.0625 12.101562 7.003906 12.039062 6.949219 11.96875 C 6.898438 11.902344 6.851562 11.832031 6.8125 11.757812 C 6.769531 11.675781 6.734375 11.59375 6.707031 11.511719 C 6.691406 11.449219 6.675781 11.390625 6.664062 11.335938 C 6.65625 11.269531 6.648438 11.210938 6.648438 11.152344 C 6.648438 11.125 6.648438 11.097656 6.648438 11.070312 C 6.652344 11.050781 6.652344 11.03125 6.65625 11.011719 C 6.660156 10.976562 6.667969 10.945312 6.671875 10.921875 C 6.675781 10.90625 6.679688 10.898438 6.679688 10.890625 C 6.679688 10.882812 6.675781 10.875 6.664062 10.875 C 6.65625 10.863281 6.648438 10.855469 6.636719 10.855469 C 6.628906 10.839844 6.625 10.832031 6.617188 10.832031 C 6.617188 10.824219 6.617188 10.824219 6.613281 10.828125 C 6.609375 10.832031 6.605469 10.84375 6.597656 10.859375 C 6.582031 10.882812 6.566406 10.914062 6.550781 10.953125 C 6.539062 10.980469 6.527344 11.011719 6.515625 11.046875 C 6.511719 11.066406 6.503906 11.085938 6.5 11.105469 C 6.484375 11.171875 6.472656 11.242188 6.46875 11.320312 C 6.464844 11.394531 6.46875 11.476562 6.476562 11.5625 C 6.488281 11.65625 6.511719 11.753906 6.546875 11.851562 C 6.582031 11.960938 6.632812 12.070312 6.695312 12.171875 C 6.730469 12.238281 6.773438 12.296875 6.816406 12.359375 C 6.84375 12.394531 6.871094 12.429688 6.902344 12.464844 C 6.9375 12.507812 6.976562 12.550781 7.019531 12.59375 C 7.050781 12.625 7.082031 12.65625 7.117188 12.6875 C 7.0625 12.660156 7.007812 12.628906 6.953125 12.59375 C 6.910156 12.570312 6.867188 12.539062 6.824219 12.511719 C 6.785156 12.476562 6.742188 12.449219 6.703125 12.414062 C 6.621094 12.34375 6.550781 12.269531 6.480469 12.183594 C 6.414062 12.101562 6.355469 12.011719 6.308594 11.917969 C 6.261719 11.828125 6.222656 11.730469 6.199219 11.632812 C 6.167969 11.523438 6.152344 11.414062 6.144531 11.308594 C 6.140625 11.234375 6.144531 11.15625 6.148438 11.089844 C 6.160156 11.007812 6.171875 10.933594 6.1875 10.867188 C 6.195312 10.835938 6.207031 10.804688 6.214844 10.773438 C 6.222656 10.75 6.234375 10.726562 6.242188 10.703125 C 6.261719 10.660156 6.277344 10.628906 6.289062 10.601562 C 6.300781 10.582031 6.308594 10.570312 6.308594 10.566406 C 6.308594 10.5625 6.296875 10.566406 6.28125 10.578125 C 6.265625 10.582031 6.246094 10.59375 6.21875 10.617188 C 6.207031 10.625 6.191406 10.636719 6.175781 10.652344 C 6.171875 10.65625 6.164062 10.660156 6.160156 10.671875 C 6.152344 10.679688 6.144531 10.691406 6.136719 10.707031 C 6.117188 10.738281 6.097656 10.773438 6.078125 10.816406 C 6.0625 10.851562 6.046875 10.890625 6.03125 10.929688 C 6.019531 10.949219 6.011719 10.972656 6.003906 11 C 5.980469 11.074219 5.960938 11.15625 5.949219 11.25 C 5.933594 11.339844 5.929688 11.4375 5.933594 11.539062 C 5.9375 11.65625 5.953125 11.777344 5.984375 11.894531 C 6.019531 12.019531 6.066406 12.144531 6.128906 12.265625 C 6.167969 12.335938 6.210938 12.410156 6.257812 12.476562 C 6.285156 12.519531 6.316406 12.558594 6.347656 12.597656 C 6.386719 12.652344 6.429688 12.699219 6.472656 12.746094 C 6.515625 12.792969 6.5625 12.839844 6.609375 12.882812 C 6.625 12.894531 6.640625 12.910156 6.65625 12.925781 C 6.648438 12.921875 6.640625 12.917969 6.636719 12.914062 C 6.539062 12.863281 6.441406 12.800781 6.34375 12.734375 C 6.296875 12.699219 6.25 12.660156 6.203125 12.625 C 6.160156 12.582031 6.109375 12.542969 6.070312 12.5 C 5.980469 12.410156 5.902344 12.3125 5.832031 12.207031 C 5.761719 12.101562 5.710938 11.988281 5.667969 11.871094 C 5.625 11.753906 5.59375 11.632812 5.582031 11.511719 C 5.550781 11.269531 5.582031 11.035156 5.632812 10.84375 C 5.660156 10.746094 5.691406 10.660156 5.726562 10.585938 C 5.761719 10.507812 5.796875 10.445312 5.828125 10.394531 C 5.859375 10.347656 5.882812 10.308594 5.90625 10.28125 C 5.925781 10.257812 5.933594 10.242188 5.933594 10.242188 C 5.933594 10.242188 5.921875 10.253906 5.898438 10.277344 C 5.875 10.300781 5.84375 10.335938 5.804688 10.378906 C 5.765625 10.425781 5.722656 10.484375 5.675781 10.558594 C 5.628906 10.628906 5.585938 10.714844 5.542969 10.808594 C 5.460938 11.003906 5.394531 11.246094 5.386719 11.519531 C 5.382812 11.65625 5.394531 11.796875 5.425781 11.9375 C 5.457031 12.078125 5.5 12.222656 5.5625 12.355469 C 5.628906 12.488281 5.703125 12.617188 5.789062 12.734375 C 5.832031 12.796875 5.882812 12.847656 5.925781 12.902344 C 5.957031 12.933594 5.984375 12.964844 6.011719 12.992188 C 3.824219 11.933594 5.519531 9.335938 6.808594 9.210938 C 6.722656 9.433594 6.660156 9.625 6.609375 9.777344 C 6.570312 9.890625 6.539062 9.984375 6.515625 10.042969 C 6.492188 10.105469 6.480469 10.136719 6.480469 10.136719 C 6.480469 10.136719 6.503906 10.113281 6.550781 10.066406 C 6.59375 10.015625 6.660156 9.941406 6.734375 9.839844 C 6.808594 9.742188 6.894531 9.621094 6.992188 9.480469 M 7.042969 6.511719 C 6.972656 6.507812 6.910156 6.507812 6.851562 6.5 C 6.796875 6.492188 6.746094 6.484375 6.699219 6.476562 C 6.65625 6.464844 6.621094 6.453125 6.589844 6.449219 C 6.53125 6.429688 6.5 6.421875 6.5 6.421875 C 6.5 6.421875 6.535156 6.425781 6.59375 6.429688 C 6.625 6.433594 6.660156 6.4375 6.707031 6.4375 C 6.75 6.4375 6.796875 6.4375 6.855469 6.4375 C 6.910156 6.4375 6.972656 6.429688 7.039062 6.425781 C 7.070312 6.417969 7.105469 6.410156 7.136719 6.40625 C 7.171875 6.398438 7.210938 6.390625 7.246094 6.378906 C 7.28125 6.367188 7.316406 6.355469 7.355469 6.339844 C 7.390625 6.324219 7.425781 6.304688 7.464844 6.289062 C 7.53125 6.246094 7.597656 6.207031 7.671875 6.132812 C 7.796875 6.019531 7.894531 5.84375 7.9375 5.648438 C 7.980469 5.449219 7.972656 5.226562 7.9375 5.003906 C 7.898438 4.777344 7.816406 4.554688 7.71875 4.332031 C 7.617188 4.109375 7.488281 3.894531 7.34375 3.691406 C 7.199219 3.488281 7.039062 3.296875 6.863281 3.121094 C 6.6875 2.949219 6.507812 2.785156 6.316406 2.648438 C 6.128906 2.511719 5.9375 2.390625 5.742188 2.292969 C 5.550781 2.199219 5.359375 2.125 5.179688 2.082031 C 5 2.035156 4.828125 2.019531 4.675781 2.019531 C 4.523438 2.027344 4.390625 2.050781 4.289062 2.089844 C 4.183594 2.125 4.109375 2.167969 4.058594 2.203125 C 4.007812 2.238281 3.980469 2.257812 3.980469 2.257812 C 3.980469 2.257812 4.003906 2.234375 4.046875 2.1875 C 4.089844 2.148438 4.160156 2.085938 4.265625 2.03125 C 4.367188 1.976562 4.503906 1.929688 4.664062 1.902344 C 4.828125 1.878906 5.015625 1.878906 5.214844 1.910156 C 5.414062 1.9375 5.625 1.996094 5.835938 2.085938 C 6.050781 2.171875 6.265625 2.285156 6.472656 2.425781 C 6.679688 2.566406 6.886719 2.726562 7.070312 2.910156 C 7.257812 3.09375 7.4375 3.296875 7.59375 3.515625 C 7.746094 3.734375 7.878906 3.964844 7.988281 4.210938 C 8.09375 4.453125 8.167969 4.707031 8.203125 4.960938 C 8.238281 5.214844 8.226562 5.472656 8.15625 5.707031 C 8.089844 5.9375 7.957031 6.140625 7.78125 6.269531 C 7.761719 6.285156 7.742188 6.300781 7.726562 6.3125 L 7.695312 6.335938 L 7.660156 6.355469 C 7.617188 6.378906 7.570312 6.40625 7.527344 6.421875 C 7.484375 6.4375 7.4375 6.453125 7.398438 6.464844 C 7.355469 6.476562 7.3125 6.484375 7.269531 6.492188 C 7.230469 6.503906 7.191406 6.503906 7.152344 6.507812 C 7.113281 6.507812 7.078125 6.511719 7.042969 6.511719 M 9.683594 7.746094 L 9.785156 7.753906 C 9.847656 7.757812 9.914062 7.765625 9.976562 7.773438 C 10.109375 7.785156 10.238281 7.800781 10.367188 7.820312 C 10.492188 7.84375 10.621094 7.867188 10.742188 7.890625 C 10.84375 7.914062 10.941406 7.9375 11.039062 7.960938 L 10.507812 8.757812 L 9.675781 7.746094 Z M 12.203125 7.203125 C 12.226562 7.167969 12.273438 7.15625 12.308594 7.179688 C 12.34375 7.203125 12.351562 7.253906 12.328125 7.289062 L 10.976562 9.320312 L 10.871094 9.199219 Z M 12.105469 5.242188 C 12.113281 5.273438 12.117188 5.308594 12.128906 5.351562 C 12.144531 5.394531 12.15625 5.441406 12.171875 5.496094 C 12.191406 5.546875 12.214844 5.605469 12.238281 5.664062 C 12.253906 5.695312 12.273438 5.726562 12.289062 5.757812 C 12.304688 5.789062 12.320312 5.820312 12.34375 5.851562 C 12.367188 5.882812 12.386719 5.914062 12.410156 5.945312 C 12.4375 5.972656 12.464844 6.003906 12.492188 6.035156 C 12.554688 6.085938 12.609375 6.140625 12.699219 6.1875 C 12.847656 6.273438 13.042969 6.316406 13.246094 6.300781 C 13.445312 6.285156 13.65625 6.214844 13.859375 6.113281 C 14.0625 6.011719 14.257812 5.867188 14.441406 5.710938 C 14.625 5.550781 14.792969 5.367188 14.945312 5.167969 C 15.097656 4.96875 15.234375 4.761719 15.351562 4.542969 C 15.46875 4.328125 15.570312 4.105469 15.648438 3.886719 C 15.722656 3.664062 15.785156 3.445312 15.820312 3.234375 C 15.851562 3.019531 15.867188 2.816406 15.859375 2.632812 C 15.851562 2.445312 15.820312 2.277344 15.773438 2.132812 C 15.722656 1.988281 15.660156 1.871094 15.597656 1.78125 C 15.53125 1.691406 15.464844 1.628906 15.421875 1.59375 C 15.371094 1.554688 15.347656 1.535156 15.347656 1.535156 C 15.347656 1.535156 15.375 1.550781 15.429688 1.578125 C 15.480469 1.609375 15.558594 1.65625 15.640625 1.742188 C 15.722656 1.824219 15.8125 1.9375 15.882812 2.085938 C 15.949219 2.234375 16.007812 2.414062 16.035156 2.613281 C 16.0625 2.8125 16.070312 3.035156 16.046875 3.261719 C 16.023438 3.492188 15.980469 3.730469 15.902344 3.96875 C 15.828125 4.207031 15.734375 4.449219 15.613281 4.683594 C 15.492188 4.914062 15.347656 5.144531 15.1875 5.355469 C 15.019531 5.566406 14.835938 5.761719 14.636719 5.933594 C 14.433594 6.109375 14.210938 6.253906 13.976562 6.359375 C 13.742188 6.464844 13.496094 6.53125 13.25 6.53125 C 13.007812 6.53125 12.777344 6.460938 12.601562 6.335938 C 12.582031 6.320312 12.5625 6.304688 12.542969 6.292969 L 12.515625 6.269531 L 12.488281 6.242188 C 12.453125 6.207031 12.414062 6.171875 12.382812 6.132812 C 12.355469 6.097656 12.328125 6.058594 12.304688 6.023438 C 12.28125 5.984375 12.261719 5.945312 12.242188 5.910156 C 12.222656 5.875 12.207031 5.835938 12.195312 5.800781 C 12.179688 5.765625 12.167969 5.730469 12.15625 5.695312 C 12.140625 5.628906 12.125 5.566406 12.113281 5.511719 C 12.105469 5.453125 12.097656 5.402344 12.09375 5.359375 C 12.089844 5.3125 12.089844 5.277344 12.089844 5.246094 C 12.085938 5.183594 12.085938 5.152344 12.085938 5.152344 C 12.085938 5.152344 12.09375 5.183594 12.105469 5.242188 M 12.382812 8.464844 C 12.75 8.640625 13.054688 8.816406 13.285156 8.917969 C 13.398438 8.96875 13.5 8.996094 13.570312 9 C 13.640625 9.003906 13.671875 8.976562 13.671875 8.980469 C 13.671875 8.980469 13.664062 8.980469 13.648438 8.980469 C 13.628906 8.980469 13.605469 8.972656 13.578125 8.960938 C 13.519531 8.9375 13.449219 8.878906 13.359375 8.800781 C 13.222656 8.679688 13.046875 8.503906 12.824219 8.3125 C 13.214844 8.214844 13.8125 8.132812 14.347656 8.34375 C 14.78125 8.515625 15.113281 8.863281 15.324219 9.367188 C 15.667969 10.179688 15.636719 10.933594 15.238281 11.488281 C 15.042969 11.757812 14.761719 11.972656 14.410156 12.125 C 14.476562 12.058594 14.542969 11.992188 14.605469 11.921875 C 14.703125 11.804688 14.789062 11.683594 14.859375 11.546875 C 14.929688 11.410156 14.984375 11.269531 15.015625 11.125 C 15.046875 10.980469 15.054688 10.832031 15.050781 10.695312 C 15.039062 10.417969 14.960938 10.175781 14.871094 9.980469 C 14.824219 9.886719 14.777344 9.800781 14.726562 9.730469 C 14.679688 9.65625 14.632812 9.597656 14.59375 9.550781 C 14.550781 9.503906 14.519531 9.46875 14.496094 9.449219 C 14.472656 9.425781 14.460938 9.414062 14.460938 9.414062 C 14.460938 9.414062 14.472656 9.425781 14.492188 9.453125 C 14.511719 9.476562 14.539062 9.519531 14.570312 9.566406 C 14.605469 9.617188 14.640625 9.683594 14.675781 9.757812 C 14.714844 9.832031 14.75 9.921875 14.78125 10.015625 C 14.8125 10.113281 14.835938 10.222656 14.851562 10.335938 C 14.867188 10.449219 14.867188 10.570312 14.855469 10.691406 C 14.84375 10.8125 14.820312 10.9375 14.773438 11.054688 C 14.730469 11.171875 14.671875 11.285156 14.597656 11.386719 C 14.523438 11.492188 14.4375 11.582031 14.34375 11.667969 C 14.25 11.746094 14.152344 11.820312 14.046875 11.882812 C 14.023438 11.898438 13.996094 11.914062 13.972656 11.929688 C 13.945312 11.941406 13.917969 11.957031 13.894531 11.96875 C 13.882812 11.972656 13.875 11.980469 13.863281 11.984375 C 13.882812 11.964844 13.902344 11.945312 13.917969 11.925781 C 14.011719 11.824219 14.097656 11.710938 14.167969 11.589844 C 14.1875 11.5625 14.203125 11.53125 14.21875 11.5 C 14.265625 11.40625 14.308594 11.3125 14.339844 11.214844 C 14.378906 11.085938 14.402344 10.957031 14.414062 10.832031 C 14.4375 10.585938 14.402344 10.359375 14.347656 10.175781 C 14.320312 10.085938 14.289062 10.003906 14.257812 9.9375 C 14.238281 9.902344 14.222656 9.871094 14.207031 9.839844 C 14.191406 9.8125 14.175781 9.789062 14.160156 9.765625 C 14.128906 9.71875 14.105469 9.6875 14.085938 9.664062 C 14.066406 9.640625 14.054688 9.628906 14.054688 9.628906 C 14.054688 9.628906 14.0625 9.644531 14.078125 9.667969 C 14.09375 9.691406 14.113281 9.730469 14.136719 9.777344 C 14.148438 9.800781 14.160156 9.832031 14.175781 9.863281 C 14.183594 9.890625 14.195312 9.921875 14.207031 9.957031 C 14.226562 10.023438 14.246094 10.105469 14.257812 10.191406 C 14.269531 10.28125 14.277344 10.375 14.273438 10.472656 C 14.273438 10.574219 14.257812 10.683594 14.230469 10.789062 C 14.207031 10.894531 14.171875 11 14.121094 11.101562 C 14.070312 11.207031 14.007812 11.304688 13.9375 11.394531 C 13.859375 11.484375 13.773438 11.570312 13.683594 11.644531 C 13.609375 11.703125 13.535156 11.757812 13.457031 11.804688 C 13.441406 11.816406 13.421875 11.828125 13.402344 11.835938 C 13.378906 11.851562 13.355469 11.863281 13.332031 11.878906 C 13.320312 11.882812 13.308594 11.890625 13.296875 11.894531 L 13.292969 11.867188 C 13.355469 11.796875 13.417969 11.71875 13.476562 11.636719 C 13.492188 11.609375 13.511719 11.582031 13.527344 11.554688 C 13.578125 11.472656 13.625 11.390625 13.660156 11.304688 C 13.710938 11.195312 13.75 11.082031 13.777344 10.96875 C 13.832031 10.75 13.84375 10.542969 13.828125 10.371094 C 13.820312 10.289062 13.804688 10.210938 13.789062 10.144531 C 13.777344 10.113281 13.765625 10.082031 13.757812 10.054688 C 13.746094 10.027344 13.738281 10 13.726562 9.980469 C 13.707031 9.933594 13.6875 9.902344 13.671875 9.878906 C 13.660156 9.855469 13.652344 9.84375 13.652344 9.84375 C 13.652344 9.84375 13.65625 9.859375 13.667969 9.882812 C 13.679688 9.90625 13.691406 9.941406 13.703125 9.988281 C 13.710938 10.011719 13.714844 10.035156 13.722656 10.066406 C 13.726562 10.09375 13.730469 10.121094 13.734375 10.152344 C 13.738281 10.21875 13.742188 10.289062 13.734375 10.367188 C 13.730469 10.445312 13.71875 10.527344 13.699219 10.613281 C 13.679688 10.703125 13.648438 10.792969 13.609375 10.886719 C 13.570312 10.976562 13.523438 11.066406 13.46875 11.152344 C 13.410156 11.238281 13.34375 11.320312 13.273438 11.398438 C 13.195312 11.480469 13.109375 11.558594 13.019531 11.625 C 12.988281 11.648438 12.957031 11.667969 12.929688 11.6875 L 12.847656 11.59375 C 13.101562 11.261719 13.265625 10.871094 13.304688 10.566406 C 13.316406 10.488281 13.320312 10.417969 13.316406 10.355469 C 13.316406 10.324219 13.3125 10.292969 13.308594 10.265625 C 13.304688 10.238281 13.300781 10.214844 13.296875 10.191406 C 13.28125 10.148438 13.273438 10.117188 13.261719 10.09375 C 13.253906 10.074219 13.25 10.0625 13.25 10.0625 C 13.25 10.0625 13.25 10.074219 13.257812 10.097656 C 13.261719 10.121094 13.265625 10.15625 13.269531 10.195312 C 13.269531 10.21875 13.269531 10.242188 13.269531 10.269531 C 13.265625 10.292969 13.265625 10.320312 13.261719 10.351562 C 13.25 10.410156 13.238281 10.476562 13.214844 10.542969 C 13.167969 10.683594 13.085938 10.835938 12.984375 10.984375 C 12.894531 11.117188 12.78125 11.242188 12.65625 11.359375 L 11.121094 9.5 L 11.941406 8.265625 C 12.097656 8.332031 12.246094 8.398438 12.382812 8.464844 M 17.328125 17.019531 L 13.765625 12.707031 C 14.5625 12.566406 15.179688 12.230469 15.550781 11.710938 C 16.023438 11.054688 16.070312 10.148438 15.679688 9.21875 C 15.425781 8.613281 15.023438 8.199219 14.488281 7.988281 C 13.703125 7.675781 12.847656 7.890625 12.449219 8.023438 C 12.375 7.96875 12.296875 7.914062 12.210938 7.863281 L 12.777344 7.011719 C 12.886719 7.042969 13.003906 7.054688 13.125 7.054688 C 14.058594 7.054688 15.152344 6.214844 15.851562 4.96875 C 16.28125 4.199219 16.507812 3.375 16.488281 2.644531 C 16.464844 1.902344 16.191406 1.347656 15.714844 1.082031 C 15.523438 0.972656 15.304688 0.917969 15.066406 0.917969 C 14.132812 0.917969 13.035156 1.757812 12.335938 3.007812 C 11.609375 4.3125 11.515625 5.710938 12.027344 6.476562 L 11.386719 7.4375 C 11.359375 7.425781 11.328125 7.414062 11.296875 7.402344 C 11.171875 7.351562 11.039062 7.308594 10.902344 7.269531 C 10.765625 7.230469 10.628906 7.191406 10.488281 7.164062 C 10.34375 7.136719 10.203125 7.109375 10.058594 7.09375 C 9.984375 7.082031 9.914062 7.074219 9.839844 7.070312 L 9.730469 7.058594 L 9.679688 7.054688 L 9.617188 7.054688 C 9.453125 7.046875 9.289062 7.054688 9.121094 7.074219 L 8.480469 6.300781 C 8.988281 5.449219 8.5625 3.953125 7.414062 2.765625 C 6.59375 1.917969 5.554688 1.390625 4.699219 1.390625 C 4.273438 1.390625 3.914062 1.523438 3.65625 1.769531 C 3.261719 2.148438 3.140625 2.757812 3.3125 3.480469 C 3.476562 4.1875 3.90625 4.925781 4.519531 5.5625 C 5.339844 6.410156 6.378906 6.9375 7.234375 6.9375 C 7.417969 6.9375 7.59375 6.910156 7.75 6.863281 L 8.191406 7.394531 C 8.082031 7.457031 7.984375 7.527344 7.890625 7.605469 C 7.664062 7.789062 7.476562 7.996094 7.332031 8.207031 C 7.183594 8.414062 7.070312 8.625 6.976562 8.820312 C 6.457031 8.742188 4.765625 8.632812 4.085938 10.414062 C 3.753906 11.289062 3.835938 12.160156 4.316406 12.796875 C 4.84375 13.507812 5.808594 13.882812 7.054688 13.882812 C 7.066406 13.882812 7.082031 13.882812 7.09375 13.882812 L 4.304688 18.066406 C 4.164062 18.28125 4.222656 18.566406 4.433594 18.707031 C 4.511719 18.757812 4.601562 18.785156 4.6875 18.785156 C 4.835938 18.785156 4.984375 18.710938 5.070312 18.578125 L 7.300781 15.234375 L 7.417969 16.019531 L 7.753906 15.957031 C 8.421875 15.765625 11.449219 15.347656 13.4375 15.347656 L 13.746094 15.347656 L 13.746094 15.007812 C 13.742188 14.738281 13.710938 14.390625 13.667969 14.039062 L 16.617188 17.609375 C 16.707031 17.71875 16.839844 17.777344 16.972656 17.777344 C 17.074219 17.777344 17.179688 17.742188 17.265625 17.667969 C 17.460938 17.507812 17.488281 17.214844 17.328125 17.019531 "/>
</g>
</svg>
