<?xml version="1.0" encoding="UTF-8"?>
<svg xmlns="http://www.w3.org/2000/svg" xmlns:xlink="http://www.w3.org/1999/xlink" width="40px" height="27px" viewBox="0 0 40 27" version="1.1">
<g id="surface1">
<path style=" stroke:none;fill-rule:nonzero;fill:rgb(6.27451%,5.882353%,5.098039%);fill-opacity:1;" d="M 20 4.5 C 17.585938 4.5 17.285156 4.511719 16.335938 4.554688 C 15.390625 4.597656 14.742188 4.75 14.175781 4.972656 C 13.59375 5.203125 13.097656 5.511719 12.601562 6.011719 C 12.109375 6.511719 11.804688 7.011719 11.578125 7.605469 C 11.359375 8.175781 11.207031 8.832031 11.164062 9.789062 C 11.121094 10.75 11.109375 11.054688 11.109375 13.5 C 11.109375 15.945312 11.121094 16.25 11.164062 17.210938 C 11.207031 18.167969 11.359375 18.824219 11.578125 19.394531 C 11.804688 19.988281 12.109375 20.488281 12.601562 20.988281 C 13.097656 21.488281 13.59375 21.796875 14.175781 22.027344 C 14.742188 22.25 15.390625 22.402344 16.335938 22.445312 C 17.285156 22.488281 17.585938 22.5 20 22.5 C 22.414062 22.5 22.714844 22.488281 23.664062 22.445312 C 24.609375 22.402344 25.257812 22.25 25.824219 22.027344 C 26.40625 21.796875 26.902344 21.488281 27.398438 20.988281 C 27.890625 20.488281 28.195312 19.988281 28.421875 19.394531 C 28.640625 18.824219 28.792969 18.167969 28.835938 17.210938 C 28.878906 16.25 28.890625 15.945312 28.890625 13.5 C 28.890625 11.054688 28.878906 10.75 28.835938 9.789062 C 28.792969 8.832031 28.640625 8.175781 28.421875 7.605469 C 28.195312 7.011719 27.890625 6.511719 27.398438 6.011719 C 26.902344 5.511719 26.40625 5.203125 25.824219 4.972656 C 25.257812 4.75 24.609375 4.597656 23.664062 4.554688 C 22.714844 4.511719 22.414062 4.5 20 4.5 Z M 20 6.121094 C 22.375 6.121094 22.65625 6.132812 23.589844 6.175781 C 24.457031 6.214844 24.929688 6.359375 25.242188 6.484375 C 25.65625 6.648438 25.953125 6.84375 26.265625 7.15625 C 26.574219 7.472656 26.769531 7.773438 26.929688 8.191406 C 27.050781 8.507812 27.195312 8.984375 27.234375 9.863281 C 27.277344 10.8125 27.289062 11.097656 27.289062 13.5 C 27.289062 15.902344 27.277344 16.1875 27.234375 17.136719 C 27.195312 18.015625 27.050781 18.492188 26.929688 18.808594 C 26.769531 19.226562 26.574219 19.527344 26.265625 19.84375 C 25.953125 20.15625 25.65625 20.351562 25.242188 20.515625 C 24.929688 20.640625 24.457031 20.785156 23.589844 20.824219 C 22.65625 20.867188 22.375 20.878906 20 20.878906 C 17.625 20.878906 17.34375 20.867188 16.410156 20.824219 C 15.542969 20.785156 15.070312 20.640625 14.757812 20.515625 C 14.34375 20.351562 14.046875 20.15625 13.734375 19.84375 C 13.425781 19.527344 13.230469 19.226562 13.070312 18.808594 C 12.949219 18.492188 12.804688 18.015625 12.765625 17.136719 C 12.722656 16.1875 12.710938 15.902344 12.710938 13.5 C 12.710938 11.097656 12.722656 10.8125 12.765625 9.863281 C 12.804688 8.984375 12.949219 8.507812 13.070312 8.191406 C 13.230469 7.773438 13.425781 7.472656 13.734375 7.15625 C 14.046875 6.84375 14.34375 6.648438 14.757812 6.484375 C 15.070312 6.359375 15.542969 6.214844 16.410156 6.175781 C 17.34375 6.132812 17.625 6.121094 20 6.121094 "/>
<path style=" stroke:none;fill-rule:nonzero;fill:rgb(6.27451%,5.882353%,5.098039%);fill-opacity:1;" d="M 20 16.5 C 18.363281 16.5 17.035156 15.15625 17.035156 13.5 C 17.035156 11.84375 18.363281 10.5 20 10.5 C 21.636719 10.5 22.964844 11.84375 22.964844 13.5 C 22.964844 15.15625 21.636719 16.5 20 16.5 Z M 20 8.878906 C 17.480469 8.878906 15.433594 10.949219 15.433594 13.5 C 15.433594 16.050781 17.480469 18.121094 20 18.121094 C 22.519531 18.121094 24.566406 16.050781 24.566406 13.5 C 24.566406 10.949219 22.519531 8.878906 20 8.878906 M 25.8125 8.695312 C 25.8125 9.292969 25.332031 9.777344 24.746094 9.777344 C 24.15625 9.777344 23.679688 9.292969 23.679688 8.695312 C 23.679688 8.097656 24.15625 7.617188 24.746094 7.617188 C 25.332031 7.617188 25.8125 8.097656 25.8125 8.695312 "/>
</g>
</svg>
