<?xml version="1.0" encoding="UTF-8"?>
<svg xmlns="http://www.w3.org/2000/svg" xmlns:xlink="http://www.w3.org/1999/xlink" width="1200px" height="800px" viewBox="0 0 200 200" version="1.1">
<g id="surface1">
<path style=" stroke:none;fill-rule:nonzero;fill:rgb(0%,0%,0%);fill-opacity:1;" d="M 24.417969 104.296875 C 6.421875 126.179688 0 151.945312 0 168.753906 C 0 171.046875 1.511719 173.007812 3.722656 173.582031 C 4.132812 173.703125 4.582031 173.746094 4.988281 173.746094 C 6.75 173.746094 8.425781 172.804688 9.367188 171.207031 C 34.847656 126.300781 82.902344 123.929688 114.273438 123.804688 L 114.273438 156.320312 C 114.273438 158.242188 115.378906 160.042969 117.136719 160.859375 C 118.894531 161.679688 120.980469 161.433594 122.453125 160.207031 L 198.199219 97.546875 C 199.34375 96.605469 200 95.175781 200 93.703125 C 200 92.191406 199.34375 90.800781 198.160156 89.859375 L 122.496094 27.40625 C 120.980469 26.179688 118.9375 25.890625 117.179688 26.75 C 115.417969 27.570312 114.316406 29.328125 114.316406 31.289062 L 114.316406 63.929688 C 66.136719 65.6875 38.894531 86.667969 24.417969 104.296875 Z M 119.34375 73.785156 C 122.085938 73.746094 124.292969 71.535156 124.292969 68.753906 L 124.292969 41.882812 L 187.117188 93.703125 L 124.292969 145.6875 L 124.292969 118.816406 C 124.292969 117.507812 123.761719 116.199219 122.820312 115.257812 C 121.882812 114.316406 120.613281 113.785156 119.265625 113.785156 C 90.101562 113.785156 43.722656 113.785156 12.679688 149.203125 C 20.492188 118.367188 47.363281 74.480469 119.34375 73.785156 Z M 119.34375 73.785156 "/>
</g>
</svg>
