<?xml version="1.0" encoding="UTF-8"?>
<svg xmlns="http://www.w3.org/2000/svg" xmlns:xlink="http://www.w3.org/1999/xlink" width="60px" height="40px" viewBox="0 0 60 40" version="1.1">
<g id="surface1">
<path style=" stroke:none;fill-rule:nonzero;fill:rgb(100%,0%,0%);fill-opacity:1;" d="M 21.328125 16.460938 C 21.15625 15.832031 20.660156 15.335938 20.03125 15.164062 C 18.878906 14.851562 14.277344 14.851562 14.277344 14.851562 C 14.277344 14.851562 9.671875 14.851562 8.523438 15.15625 C 7.90625 15.324219 7.394531 15.832031 7.226562 16.460938 C 6.921875 17.613281 6.921875 20 6.921875 20 C 6.921875 20 6.921875 22.398438 7.226562 23.539062 C 7.394531 24.167969 7.890625 24.664062 8.523438 24.835938 C 9.6875 25.148438 14.277344 25.148438 14.277344 25.148438 C 14.277344 25.148438 18.878906 25.148438 20.03125 24.84375 C 20.660156 24.675781 21.15625 24.179688 21.328125 23.546875 C 21.628906 22.398438 21.628906 20.011719 21.628906 20.011719 C 21.628906 20.011719 21.640625 17.613281 21.328125 16.460938 Z M 21.328125 16.460938 "/>
<path style=" stroke:none;fill-rule:nonzero;fill:rgb(100%,100%,100%);fill-opacity:1;" d="M 12.8125 17.796875 L 12.8125 22.203125 L 16.640625 20 Z M 12.8125 17.796875 "/>
<path style=" stroke:none;fill-rule:nonzero;fill:rgb(15.686275%,15.686275%,15.686275%);fill-opacity:1;" d="M 28.28125 24.226562 C 27.988281 24.03125 27.78125 23.730469 27.664062 23.304688 C 27.539062 22.894531 27.480469 22.335938 27.480469 21.660156 L 27.480469 20.726562 C 27.480469 20.039062 27.554688 19.476562 27.6875 19.054688 C 27.832031 18.632812 28.050781 18.328125 28.339844 18.132812 C 28.640625 17.941406 29.03125 17.84375 29.515625 17.84375 C 29.988281 17.84375 30.375 17.941406 30.664062 18.132812 C 30.957031 18.328125 31.164062 18.640625 31.296875 19.054688 C 31.429688 19.46875 31.5 20.023438 31.5 20.726562 L 31.5 21.660156 C 31.5 22.351562 31.441406 22.894531 31.308594 23.320312 C 31.175781 23.730469 30.96875 24.046875 30.679688 24.242188 C 30.386719 24.433594 29.988281 24.53125 29.492188 24.53125 C 28.984375 24.519531 28.570312 24.421875 28.28125 24.226562 Z M 29.914062 23.210938 C 30 23.003906 30.039062 22.652344 30.039062 22.179688 L 30.039062 20.171875 C 30.039062 19.710938 30 19.371094 29.914062 19.152344 C 29.828125 18.933594 29.695312 18.835938 29.492188 18.835938 C 29.296875 18.835938 29.152344 18.945312 29.078125 19.152344 C 28.992188 19.371094 28.960938 19.710938 28.960938 20.171875 L 28.960938 22.179688 C 28.960938 22.652344 28.992188 23.003906 29.078125 23.210938 C 29.152344 23.414062 29.296875 23.523438 29.503906 23.523438 C 29.695312 23.523438 29.828125 23.429688 29.914062 23.210938 Z M 29.914062 23.210938 "/>
<path style=" stroke:none;fill-rule:nonzero;fill:rgb(15.686275%,15.686275%,15.686275%);fill-opacity:1;" d="M 50.640625 21.671875 L 50.640625 22 C 50.640625 22.410156 50.65625 22.726562 50.679688 22.929688 C 50.703125 23.136719 50.75 23.296875 50.835938 23.378906 C 50.90625 23.476562 51.03125 23.523438 51.199219 23.523438 C 51.417969 23.523438 51.5625 23.441406 51.648438 23.273438 C 51.734375 23.101562 51.769531 22.820312 51.78125 22.421875 L 53.027344 22.496094 C 53.039062 22.554688 53.039062 22.628906 53.039062 22.726562 C 53.039062 23.320312 52.882812 23.765625 52.554688 24.058594 C 52.226562 24.351562 51.769531 24.492188 51.175781 24.492188 C 50.460938 24.492188 49.960938 24.265625 49.671875 23.816406 C 49.382812 23.367188 49.234375 22.679688 49.234375 21.734375 L 49.234375 20.605469 C 49.234375 19.636719 49.382812 18.933594 49.6875 18.484375 C 49.988281 18.039062 50.496094 17.820312 51.210938 17.820312 C 51.707031 17.820312 52.09375 17.914062 52.363281 18.097656 C 52.628906 18.28125 52.8125 18.570312 52.921875 18.945312 C 53.027344 19.335938 53.078125 19.867188 53.078125 20.546875 L 53.078125 21.648438 L 50.640625 21.648438 Z M 50.824219 18.960938 C 50.75 19.054688 50.703125 19.203125 50.679688 19.40625 C 50.65625 19.613281 50.640625 19.929688 50.640625 20.351562 L 50.640625 20.8125 L 51.707031 20.8125 L 51.707031 20.351562 C 51.707031 19.9375 51.695312 19.625 51.671875 19.40625 C 51.648438 19.1875 51.585938 19.042969 51.515625 18.960938 C 51.441406 18.875 51.320312 18.824219 51.175781 18.824219 C 51.007812 18.8125 50.898438 18.859375 50.824219 18.960938 Z M 50.824219 18.960938 "/>
<path style=" stroke:none;fill-rule:nonzero;fill:rgb(15.686275%,15.686275%,15.686275%);fill-opacity:1;" d="M 24.742188 21.550781 L 23.09375 15.578125 L 24.539062 15.578125 L 25.117188 18.28125 C 25.265625 18.945312 25.375 19.515625 25.445312 19.988281 L 25.480469 19.988281 C 25.53125 19.648438 25.640625 19.09375 25.808594 18.292969 L 26.414062 15.578125 L 27.855469 15.578125 L 26.183594 21.550781 L 26.183594 24.410156 L 24.753906 24.410156 L 24.753906 21.550781 Z M 24.742188 21.550781 "/>
<path style=" stroke:none;fill-rule:nonzero;fill:rgb(15.686275%,15.686275%,15.686275%);fill-opacity:1;" d="M 36.1875 17.964844 L 36.1875 24.421875 L 35.050781 24.421875 L 34.929688 23.632812 L 34.894531 23.632812 C 34.59375 24.226562 34.117188 24.53125 33.5 24.53125 C 33.078125 24.53125 32.761719 24.382812 32.554688 24.105469 C 32.351562 23.828125 32.253906 23.390625 32.253906 22.785156 L 32.253906 17.964844 L 33.707031 17.964844 L 33.707031 22.703125 C 33.707031 22.992188 33.742188 23.199219 33.804688 23.320312 C 33.863281 23.441406 33.972656 23.5 34.117188 23.5 C 34.242188 23.5 34.359375 23.464844 34.484375 23.378906 C 34.601562 23.304688 34.6875 23.210938 34.734375 23.089844 L 34.734375 17.964844 Z M 36.1875 17.964844 "/>
<path style=" stroke:none;fill-rule:nonzero;fill:rgb(15.686275%,15.686275%,15.686275%);fill-opacity:1;" d="M 43.640625 17.964844 L 43.640625 24.421875 L 42.5 24.421875 L 42.382812 23.632812 L 42.34375 23.632812 C 42.039062 24.226562 41.570312 24.53125 40.953125 24.53125 C 40.527344 24.53125 40.210938 24.382812 40.007812 24.105469 C 39.800781 23.828125 39.703125 23.390625 39.703125 22.785156 L 39.703125 17.964844 L 41.15625 17.964844 L 41.15625 22.703125 C 41.15625 22.992188 41.195312 23.199219 41.253906 23.320312 C 41.3125 23.441406 41.421875 23.5 41.570312 23.5 C 41.6875 23.5 41.8125 23.464844 41.929688 23.378906 C 42.054688 23.304688 42.140625 23.210938 42.1875 23.089844 L 42.1875 17.964844 Z M 43.640625 17.964844 "/>
<path style=" stroke:none;fill-rule:nonzero;fill:rgb(15.686275%,15.686275%,15.686275%);fill-opacity:1;" d="M 40.140625 16.753906 L 38.695312 16.753906 L 38.695312 24.410156 L 37.28125 24.410156 L 37.28125 16.753906 L 35.839844 16.753906 L 35.839844 15.578125 L 40.140625 15.578125 Z M 40.140625 16.753906 "/>
<path style=" stroke:none;fill-rule:nonzero;fill:rgb(15.686275%,15.686275%,15.686275%);fill-opacity:1;" d="M 48.449219 18.992188 C 48.367188 18.582031 48.21875 18.292969 48.023438 18.109375 C 47.832031 17.929688 47.554688 17.832031 47.214844 17.832031 C 46.945312 17.832031 46.695312 17.90625 46.460938 18.0625 C 46.234375 18.207031 46.050781 18.414062 45.929688 18.65625 L 45.917969 18.65625 L 45.917969 15.25 L 44.511719 15.25 L 44.511719 24.410156 L 45.710938 24.410156 L 45.859375 23.804688 L 45.894531 23.804688 C 46 24.023438 46.171875 24.191406 46.402344 24.324219 C 46.632812 24.445312 46.875 24.519531 47.152344 24.519531 C 47.648438 24.519531 48 24.289062 48.230469 23.839844 C 48.460938 23.390625 48.582031 22.679688 48.582031 21.71875 L 48.582031 20.703125 C 48.570312 19.960938 48.535156 19.394531 48.449219 18.992188 Z M 47.117188 21.625 C 47.117188 22.09375 47.09375 22.460938 47.054688 22.726562 C 47.019531 22.992188 46.945312 23.1875 46.863281 23.296875 C 46.765625 23.40625 46.644531 23.464844 46.5 23.464844 C 46.378906 23.464844 46.269531 23.441406 46.171875 23.378906 C 46.074219 23.320312 45.992188 23.234375 45.929688 23.125 L 45.929688 19.46875 C 45.976562 19.296875 46.0625 19.152344 46.183594 19.03125 C 46.304688 18.921875 46.4375 18.859375 46.570312 18.859375 C 46.71875 18.859375 46.835938 18.921875 46.910156 19.03125 C 46.996094 19.152344 47.046875 19.34375 47.078125 19.613281 C 47.117188 19.890625 47.128906 20.28125 47.128906 20.773438 L 47.128906 21.625 Z M 47.117188 21.625 "/>
</g>
</svg>
